<svg xmlns="http://www.w3.org/2000/svg" viewBox="0 0 300 200">
  <g transform="translate(150, 100)">
    <!-- Main satellite body -->
    <rect x="-30" y="-40" width="60" height="80" fill="#3182ce" stroke="#1a202c" stroke-width="2" rx="5" ry="5" />
    
    <!-- Solar panels -->
    <g transform="rotate(15)">
      <!-- Left panel -->
      <rect x="-120" y="-20" width="80" height="40" fill="#2c5282" stroke="#1a202c" stroke-width="2" rx="2" ry="2" />
      
      <!-- Left panel solar cells -->
      <rect x="-115" y="-15" width="17" height="10" fill="#4299e1" stroke="#2c5282" stroke-width="0.5" />
      <rect x="-95" y="-15" width="17" height="10" fill="#4299e1" stroke="#2c5282" stroke-width="0.5" />
      <rect x="-75" y="-15" width="17" height="10" fill="#4299e1" stroke="#2c5282" stroke-width="0.5" />
      
      <rect x="-115" y="-2" width="17" height="10" fill="#4299e1" stroke="#2c5282" stroke-width="0.5" />
      <rect x="-95" y="-2" width="17" height="10" fill="#4299e1" stroke="#2c5282" stroke-width="0.5" />
      <rect x="-75" y="-2" width="17" height="10" fill="#4299e1" stroke="#2c5282" stroke-width="0.5" />
      
      <rect x="-115" y="11" width="17" height="10" fill="#4299e1" stroke="#2c5282" stroke-width="0.5" />
      <rect x="-95" y="11" width="17" height="10" fill="#4299e1" stroke="#2c5282" stroke-width="0.5" />
      <rect x="-75" y="11" width="17" height="10" fill="#4299e1" stroke="#2c5282" stroke-width="0.5" />
      
      <!-- Left panel connection arm -->
      <rect x="-40" y="-3" width="10" height="6" fill="#718096" stroke="#1a202c" stroke-width="1" />
    </g>
    
    <g transform="rotate(-15)">
      <!-- Right panel -->
      <rect x="40" y="-20" width="80" height="40" fill="#2c5282" stroke="#1a202c" stroke-width="2" rx="2" ry="2" />
      
      <!-- Right panel solar cells -->
      <rect x="45" y="-15" width="17" height="10" fill="#4299e1" stroke="#2c5282" stroke-width="0.5" />
      <rect x="65" y="-15" width="17" height="10" fill="#4299e1" stroke="#2c5282" stroke-width="0.5" />
      <rect x="85" y="-15" width="17" height="10" fill="#4299e1" stroke="#2c5282" stroke-width="0.5" />
      
      <rect x="45" y="-2" width="17" height="10" fill="#4299e1" stroke="#2c5282" stroke-width="0.5" />
      <rect x="65" y="-2" width="17" height="10" fill="#4299e1" stroke="#2c5282" stroke-width="0.5" />
      <rect x="85" y="-2" width="17" height="10" fill="#4299e1" stroke="#2c5282" stroke-width="0.5" />
      
      <rect x="45" y="11" width="17" height="10" fill="#4299e1" stroke="#2c5282" stroke-width="0.5" />
      <rect x="65" y="11" width="17" height="10" fill="#4299e1" stroke="#2c5282" stroke-width="0.5" />
      <rect x="85" y="11" width="17" height="10" fill="#4299e1" stroke="#2c5282" stroke-width="0.5" />
      
      <!-- Right panel connection arm -->
      <rect x="30" y="-3" width="10" height="6" fill="#718096" stroke="#1a202c" stroke-width="1" />
    </g>
    
    <!-- Antenna -->
    <g transform="translate(0, -55)">
      <!-- Antenna base -->
      <circle cx="0" cy="0" r="5" fill="#718096" stroke="#1a202c" stroke-width="1" />
      
      <!-- Antenna pole -->
      <rect x="-1" y="-20" width="2" height="20" fill="#a0aec0" stroke="#1a202c" stroke-width="0.5" />
      
      <!-- Antenna dish -->
      <ellipse cx="0" cy="-25" rx="10" ry="5" fill="#cbd5e0" stroke="#1a202c" stroke-width="1" transform="rotate(-30)" />
    </g>
    
    <!-- Camera -->
    <g transform="translate(20, 0)">
      <!-- Camera body -->
      <rect x="-10" y="-10" width="20" height="20" fill="#2d3748" stroke="#1a202c" stroke-width="1" rx="2" ry="2" />
      
      <!-- Camera lens -->
      <circle cx="0" cy="0" r="7" fill="#1a202c" stroke="#1a202c" stroke-width="1" />
      <circle cx="0" cy="0" r="5" fill="#2c5282" stroke="#1a202c" stroke-width="0.5" />
      <circle cx="0" cy="0" r="2" fill="#4299e1" />
      
      <!-- Lens reflection -->
      <circle cx="-1" cy="-1" r="1" fill="white" />
    </g>
    
    <!-- Power supply indicators -->
    <rect x="-20" y="20" width="40" height="10" fill="#2d3748" stroke="#1a202c" stroke-width="1" rx="2" ry="2" />
    <circle cx="-10" cy="25" r="3" fill="#f6ad55" />
    <circle cx="0" cy="25" r="3" fill="#f6ad55" />
    <circle cx="10" cy="25" r="3" fill="#f6ad55" />
    
    <!-- Satellite details -->
    <rect x="-15" y="-20" width="30" height="15" fill="#2d3748" stroke="#1a202c" stroke-width="1" rx="2" ry="2" />
    <rect x="-10" y="-17" width="20" height="9" fill="#4a5568" stroke="#1a202c" stroke-width="0.5" />
    
    <!-- Earth reflection in the satellite -->
    <circle cx="0" cy="-5" r="8" fill="#2c5282" stroke="#1a202c" stroke-width="0.5" opacity="0.5" />
  </g>
</svg> 