<svg xmlns="http://www.w3.org/2000/svg" viewBox="0 0 200 200">
  <g transform="translate(100, 100)">
    <!-- Support arm -->
    <rect x="-5" y="-10" width="10" height="20" fill="#718096" stroke="#1a202c" stroke-width="1" />
    
    <!-- Panel base -->
    <rect x="-60" y="-35" width="120" height="70" fill="#2d3748" stroke="#1a202c" stroke-width="2" rx="2" ry="2" />
    
    <!-- Solar cells -->
    <g>
      <!-- Row 1 -->
      <rect x="-55" y="-30" width="25" height="20" fill="#4299e1" stroke="#2c5282" stroke-width="1" />
      <rect x="-25" y="-30" width="25" height="20" fill="#4299e1" stroke="#2c5282" stroke-width="1" />
      <rect x="5" y="-30" width="25" height="20" fill="#4299e1" stroke="#2c5282" stroke-width="1" />
      <rect x="35" y="-30" width="25" height="20" fill="#4299e1" stroke="#2c5282" stroke-width="1" />
      
      <!-- Row 2 -->
      <rect x="-55" y="-5" width="25" height="20" fill="#4299e1" stroke="#2c5282" stroke-width="1" />
      <rect x="-25" y="-5" width="25" height="20" fill="#4299e1" stroke="#2c5282" stroke-width="1" />
      <rect x="5" y="-5" width="25" height="20" fill="#4299e1" stroke="#2c5282" stroke-width="1" />
      <rect x="35" y="-5" width="25" height="20" fill="#4299e1" stroke="#2c5282" stroke-width="1" />
      
      <!-- Row 3 -->
      <rect x="-55" y="20" width="25" height="20" fill="#4299e1" stroke="#2c5282" stroke-width="1" />
      <rect x="-25" y="20" width="25" height="20" fill="#4299e1" stroke="#2c5282" stroke-width="1" />
      <rect x="5" y="20" width="25" height="20" fill="#4299e1" stroke="#2c5282" stroke-width="1" />
      <rect x="35" y="20" width="25" height="20" fill="#4299e1" stroke="#2c5282" stroke-width="1" />
    </g>
    
    <!-- Connection details -->
    <circle cx="0" cy="0" r="5" fill="#718096" stroke="#1a202c" stroke-width="1" />
    <line x1="-60" y1="0" x2="60" y2="0" stroke="#718096" stroke-width="2" />
  </g>
</svg> 