<svg xmlns="http://www.w3.org/2000/svg" width="800" height="600" viewBox="0 0 800 600">
  <!-- Background -->
  <rect width="100%" height="100%" fill="#0B0E18" />
  
  <!-- Small stars -->
  <g fill="#FFFFFF">
    <circle cx="50" cy="60" r="1" />
    <circle cx="120" cy="30" r="1.2" />
    <circle cx="200" cy="80" r="0.8" />
    <circle cx="280" cy="40" r="1.1" />
    <circle cx="350" cy="90" r="0.9" />
    <circle cx="420" cy="50" r="1" />
    <circle cx="500" cy="70" r="1.3" />
    <circle cx="580" cy="20" r="0.7" />
    <circle cx="650" cy="60" r="1" />
    <circle cx="730" cy="40" r="1.2" />
    <circle cx="30" cy="120" r="0.9" />
    <circle cx="100" cy="150" r="1" />
    <circle cx="180" cy="110" r="1.1" />
    <circle cx="250" cy="170" r="0.8" />
    <circle cx="330" cy="130" r="1.2" />
    <circle cx="400" cy="160" r="0.7" />
    <circle cx="480" cy="120" r="1" />
    <circle cx="550" cy="180" r="1.1" />
    <circle cx="630" cy="140" r="0.9" />
    <circle cx="700" cy="170" r="1.3" />
    <circle cx="70" cy="220" r="1" />
    <circle cx="150" cy="250" r="0.8" />
    <circle cx="220" cy="210" r="1.2" />
    <circle cx="300" cy="240" r="0.9" />
    <circle cx="380" cy="200" r="1" />
    <circle cx="450" cy="260" r="1.1" />
    <circle cx="530" cy="220" r="0.7" />
    <circle cx="600" cy="250" r="1.3" />
    <circle cx="680" cy="210" r="0.8" />
    <circle cx="750" cy="240" r="1" />
    <circle cx="40" cy="300" r="1.2" />
    <circle cx="120" cy="330" r="0.9" />
    <circle cx="190" cy="290" r="1" />
    <circle cx="270" cy="340" r="1.1" />
    <circle cx="350" cy="300" r="0.7" />
    <circle cx="420" cy="330" r="1.3" />
    <circle cx="500" cy="290" r="0.8" />
    <circle cx="570" cy="340" r="1" />
    <circle cx="650" cy="300" r="1.2" />
    <circle cx="720" cy="330" r="0.9" />
    <circle cx="80" cy="380" r="1" />
    <circle cx="160" cy="410" r="1.1" />
    <circle cx="230" cy="370" r="0.8" />
    <circle cx="310" cy="420" r="1.2" />
    <circle cx="390" cy="380" r="0.7" />
    <circle cx="460" cy="410" r="1" />
    <circle cx="540" cy="370" r="1.3" />
    <circle cx="620" cy="420" r="0.8" />
    <circle cx="690" cy="380" r="1" />
    <circle cx="760" cy="410" r="1.1" />
    <circle cx="50" cy="460" r="0.9" />
    <circle cx="130" cy="490" r="1" />
    <circle cx="200" cy="450" r="1.2" />
    <circle cx="280" cy="500" r="0.7" />
    <circle cx="360" cy="460" r="1" />
    <circle cx="430" cy="490" r="1.1" />
    <circle cx="510" cy="450" r="0.9" />
    <circle cx="580" cy="500" r="1.3" />
    <circle cx="660" cy="460" r="0.8" />
    <circle cx="730" cy="490" r="1" />
    <circle cx="30" cy="540" r="1.2" />
    <circle cx="110" cy="570" r="0.9" />
    <circle cx="180" cy="530" r="1" />
    <circle cx="260" cy="580" r="1.1" />
    <circle cx="340" cy="540" r="0.7" />
    <circle cx="410" cy="570" r="1.3" />
    <circle cx="490" cy="530" r="0.8" />
    <circle cx="560" cy="580" r="1" />
    <circle cx="640" cy="540" r="1.2" />
    <circle cx="710" cy="570" r="0.9" />
  </g>
  
  <!-- Medium stars -->
  <g fill="#FFFFFF">
    <circle cx="150" cy="80" r="2" />
    <circle cx="400" cy="60" r="2.5" />
    <circle cx="650" cy="100" r="2.2" />
    <circle cx="250" cy="200" r="2.3" />
    <circle cx="500" cy="180" r="2" />
    <circle cx="100" cy="250" r="2.4" />
    <circle cx="350" cy="270" r="2.1" />
    <circle cx="600" cy="230" r="2" />
    <circle cx="180" cy="350" r="2.2" />
    <circle cx="430" cy="330" r="2.5" />
    <circle cx="680" cy="370" r="2" />
    <circle cx="120" cy="420" r="2.3" />
    <circle cx="370" cy="440" r="2" />
    <circle cx="620" cy="400" r="2.4" />
    <circle cx="280" cy="500" r="2.1" />
    <circle cx="530" cy="520" r="2" />
    <circle cx="750" cy="480" r="2.2" />
  </g>
  
  <!-- Big stars with glow -->
  <g>
    <circle cx="200" cy="150" r="3" fill="#FFFFFF" />
    <circle cx="200" cy="150" r="6" fill="none" stroke="#FFFFFF" stroke-opacity="0.3" />
    
    <circle cx="450" cy="100" r="4" fill="#FFFFFF" />
    <circle cx="450" cy="100" r="8" fill="none" stroke="#FFFFFF" stroke-opacity="0.3" />
    
    <circle cx="700" cy="200" r="3.5" fill="#FFFFFF" />
    <circle cx="700" cy="200" r="7" fill="none" stroke="#FFFFFF" stroke-opacity="0.3" />
    
    <circle cx="150" cy="300" r="3" fill="#FFFFFF" />
    <circle cx="150" cy="300" r="6" fill="none" stroke="#FFFFFF" stroke-opacity="0.3" />
    
    <circle cx="550" cy="380" r="4" fill="#FFFFFF" />
    <circle cx="550" cy="380" r="8" fill="none" stroke="#FFFFFF" stroke-opacity="0.3" />
    
    <circle cx="300" cy="450" r="3.5" fill="#FFFFFF" />
    <circle cx="300" cy="450" r="7" fill="none" stroke="#FFFFFF" stroke-opacity="0.3" />
    
    <circle cx="650" cy="500" r="3" fill="#FFFFFF" />
    <circle cx="650" cy="500" r="6" fill="none" stroke="#FFFFFF" stroke-opacity="0.3" />
  </g>
  
  <!-- Colorful stars -->
  <g>
    <circle cx="100" cy="100" r="2.5" fill="#FFC2D1" /> <!-- Pink star -->
    <circle cx="300" cy="200" r="2" fill="#6B4E71" /> <!-- Purple star -->
    <circle cx="500" cy="300" r="3" fill="#1A2151" /> <!-- Blue star -->
    <circle cx="700" cy="400" r="2.5" fill="#FFC2D1" /> <!-- Pink star -->
    <circle cx="200" cy="500" r="2" fill="#6B4E71" /> <!-- Purple star -->
    <circle cx="400" cy="150" r="2.5" fill="#1A2151" /> <!-- Blue star -->
    <circle cx="600" cy="350" r="2" fill="#FFC2D1" /> <!-- Pink star -->
    <circle cx="100" cy="450" r="3" fill="#6B4E71" /> <!-- Purple star -->
    <circle cx="350" cy="550" r="2.5" fill="#1A2151" /> <!-- Blue star -->
  </g>
  
  <!-- Animated nebula (gradient shapes) -->
  <g opacity="0.1">
    <ellipse cx="200" cy="200" rx="150" ry="100" fill="url(#nebula1)" />
    <ellipse cx="600" cy="400" rx="200" ry="120" fill="url(#nebula2)" />
  </g>
  
  <!-- Gradients -->
  <defs>
    <radialGradient id="nebula1" cx="50%" cy="50%" r="50%" fx="50%" fy="50%">
      <stop offset="0%" stop-color="#6B4E71" stop-opacity="0.7" />
      <stop offset="100%" stop-color="#6B4E71" stop-opacity="0" />
    </radialGradient>
    
    <radialGradient id="nebula2" cx="50%" cy="50%" r="50%" fx="50%" fy="50%">
      <stop offset="0%" stop-color="#1A2151" stop-opacity="0.7" />
      <stop offset="100%" stop-color="#1A2151" stop-opacity="0" />
    </radialGradient>
  </defs>
</svg> 